<?xml version="1.0" ?><svg data-name="Layer 1" id="Layer_1" viewBox="0 0 500 500" xmlns="http://www.w3.org/2000/svg"><defs><style>.cls-1{fill:#88a451;}.cls-2{opacity:0.15;}.cls-3{fill:#f8e6c5;}.cls-4{fill:#faae3b;}.cls-5{fill:none;stroke:#000;stroke-linecap:round;stroke-linejoin:round;stroke-width:20px;}</style></defs><title/><rect class="cls-1" height="38.35" width="301.47" x="99.26" y="451.31"/><rect class="cls-2" height="38.35" width="39.96" x="360.78" y="451.31"/><rect class="cls-3" height="37.42" width="151.6" x="174.2" y="311.17"/><rect class="cls-2" height="37.42" width="39.96" x="285.84" y="311.17"/><rect class="cls-1" height="33.3" width="255.86" x="122.07" y="47.29"/><rect class="cls-1" height="36.94" width="162.39" x="168.81" y="10.35"/><rect class="cls-2" height="33.3" width="39.96" x="337.97" y="47.29"/><rect class="cls-2" height="36.94" width="39.96" x="291.23" y="10.35"/><path class="cls-1" d="M193,348.59H307a75.4,75.4,0,0,1,75.4,75.4v27.32a0,0,0,0,1,0,0H117.64a0,0,0,0,1,0,0V424A75.4,75.4,0,0,1,193,348.59Z"/><path class="cls-2" d="M307,348.59H260.35A75.39,75.39,0,0,1,335.74,424v27.32h46.62V424A75.4,75.4,0,0,0,307,348.59Z"/><path class="cls-4" d="M144.3,80.58H355.7a0,0,0,0,1,0,0V275.27a35.9,35.9,0,0,1-35.9,35.9H180.2a35.9,35.9,0,0,1-35.9-35.9V80.58A0,0,0,0,1,144.3,80.58Z"/><path class="cls-2" d="M309.08,80.58V275.27a35.9,35.9,0,0,1-35.9,35.9H319.8a35.9,35.9,0,0,0,35.9-35.9V80.58Z"/><circle class="cls-3" cx="250" cy="399.95" r="24.79"/><rect class="cls-5" height="38.35" width="301.47" x="99.26" y="451.31"/><rect class="cls-5" height="37.42" width="151.6" x="174.2" y="311.17"/><rect class="cls-5" height="33.3" width="255.86" x="122.07" y="47.29"/><rect class="cls-5" height="36.94" width="162.39" x="168.81" y="10.35"/><path class="cls-5" d="M193,348.59H307a75.4,75.4,0,0,1,75.4,75.4v27.32a0,0,0,0,1,0,0H117.64a0,0,0,0,1,0,0V424A75.4,75.4,0,0,1,193,348.59Z"/><path class="cls-5" d="M144.3,80.58H355.7a0,0,0,0,1,0,0V275.27a35.9,35.9,0,0,1-35.9,35.9H180.2a35.9,35.9,0,0,1-35.9-35.9V80.58A0,0,0,0,1,144.3,80.58Z"/><circle class="cls-5" cx="250" cy="399.95" r="24.79"/></svg>